<svg width="43" height="43" viewBox="0 0 43 43" fill="none" xmlns="http://www.w3.org/2000/svg">
<g clip-path="url(#clip0_91_232)">
<path d="M21.8558 10.735C21.828 11.064 21.9316 11.3907 22.1439 11.6437C22.3561 11.8967 22.6599 12.0554 22.9888 12.0851L29.3492 12.6061L9.7959 29.0133C9.54194 29.2264 9.38303 29.5316 9.35414 29.8619C9.32524 30.1921 9.42873 30.5203 9.64182 30.7743C9.85492 31.0283 10.1602 31.1872 10.4904 31.2161C10.8207 31.245 11.1489 31.1415 11.4029 30.9284L30.9466 14.5292L30.3889 20.9042C30.3738 21.0685 30.3914 21.2342 30.4407 21.3917C30.49 21.5492 30.57 21.6953 30.6761 21.8217C30.7822 21.9481 30.9122 22.0523 31.0587 22.1282C31.2053 22.2041 31.3654 22.2502 31.5298 22.2639C31.8589 22.2917 32.1856 22.1882 32.4385 21.9759C32.6915 21.7637 32.8502 21.4599 32.88 21.131L33.492 14.2373C33.578 13.2473 33.2675 12.2636 32.6287 11.5024C31.9899 10.7411 31.0751 10.2645 30.0852 10.1773L23.206 9.60205C22.8769 9.57425 22.5503 9.67779 22.2973 9.89006C22.0443 10.1023 21.8856 10.4061 21.8558 10.735Z" fill="#A2004E"/>
</g>
<defs>
<clipPath id="clip0_91_232">
<rect width="30" height="30" fill="white" transform="translate(22.9813) rotate(50)"/>
</clipPath>
</defs>
</svg>
