<svg width="20" height="20" viewBox="0 0 20 20" fill="none" xmlns="http://www.w3.org/2000/svg">
<g clip-path="url(#clip0_1_30)">
<path d="M10 19.5514L9.27834 19.0414C8.32834 18.3697 9.19634e-06 12.3189 9.19634e-06 6.7914C-0.053874 5.24264 0.507566 3.73554 1.56161 2.59952C2.61565 1.46349 4.07656 0.790952 5.62501 0.728897C6.47973 0.737297 7.3206 0.945701 8.08032 1.33742C8.84003 1.72915 9.49747 2.29331 10 2.98473C10.5025 2.29331 11.16 1.72915 11.9197 1.33742C12.6794 0.945701 13.5203 0.737297 14.375 0.728897C15.9235 0.790952 17.3844 1.46349 18.4384 2.59952C19.4925 3.73554 20.0539 5.24264 20 6.7914C20 12.3189 11.6717 18.3697 10.7217 19.0414L10 19.5514ZM5.62501 3.2289C4.73998 3.2916 3.91541 3.70089 3.33033 4.36788C2.74524 5.03488 2.44688 5.90574 2.50001 6.7914C2.50001 10.0547 7.38584 14.4664 10 16.4672C12.6142 14.4672 17.5 10.0547 17.5 6.7914C17.5531 5.90574 17.2548 5.03488 16.6697 4.36788C16.0846 3.70089 15.26 3.2916 14.375 3.2289C13.49 3.2916 12.6654 3.70089 12.0803 4.36788C11.4952 5.03488 11.1969 5.90574 11.25 6.7914H8.75001C8.80314 5.90574 8.50478 5.03488 7.91969 4.36788C7.33461 3.70089 6.51004 3.2916 5.62501 3.2289Z" fill="#960048"/>
</g>
<defs>
<clipPath id="clip0_1_30">
<rect width="20" height="20" fill="white"/>
</clipPath>
</defs>
</svg>
